<svg width="138" height="199" viewBox="0 0 138 199" fill="none" xmlns="http://www.w3.org/2000/svg">
<path d="M91.0097 190.964C90.0016 191.25 88.9764 191.44 87.9418 191.522C85.4918 191.718 79.8788 191.479 72.1849 190.81C64.7021 190.158 55.7799 189.152 47.0538 187.984C38.3178 186.814 29.8684 185.495 23.3138 184.227C20.025 183.591 17.3143 182.987 15.3223 182.444C14.3221 182.172 13.6011 181.941 13.1248 181.762C13.0471 181.733 12.9825 181.707 12.9298 181.686C11.5983 180.575 10.1079 178.511 8.91079 175.602C7.6622 172.568 7 169.251 7 166.5V33.5C7 28.3033 8.15875 23.9735 9.57162 21.0024C10.2815 19.5096 10.9888 18.4991 11.516 17.9172C11.6288 17.7927 11.7208 17.701 11.7911 17.6355C37.8327 10.8182 72.1915 6.55476 87.5765 7.4872C91.3294 7.71465 94.2599 8.89948 96.5662 10.4664C96.5676 10.4673 96.569 10.4683 96.5705 10.4693C99.2166 12.2683 101.162 14.6603 102.44 16.9009C103.075 18.0137 103.503 19.016 103.758 19.7802C103.936 20.3153 103.987 20.604 104 20.6653V177.5C104 178.616 103.506 180.507 102.015 182.778C100.634 184.881 98.6337 186.937 96.2214 188.534C94.3276 189.419 92.5651 190.241 91.0097 190.964ZM11.9568 17.4965C11.9569 17.4967 11.9513 17.5008 11.9401 17.508C11.9512 17.4998 11.9568 17.4962 11.9568 17.4965ZM118 177.5V20.8037L121.679 22.5631C125.969 24.6144 128.635 26.5485 129.926 28.8778L136.049 25.4849L129.926 28.8778C130.171 29.3209 130.338 29.6855 130.442 29.9637C130.499 30.1179 130.526 30.217 130.538 30.2643C130.539 30.2805 130.54 30.3034 130.541 30.3335C130.547 30.4702 130.558 30.7568 130.572 31.2538C130.593 32.028 130.613 33.0963 130.633 34.4423C130.673 37.1296 130.708 40.8466 130.74 45.3711C130.805 54.416 130.855 66.6332 130.892 80.1768C130.968 107.261 130.996 139.616 131 162.427C131 165.175 130.769 167.304 130.145 169.069L136.745 171.402L130.145 169.069C129.7 170.329 129.199 171.466 128.7 172.32C128.455 172.739 128.26 173.005 128.135 173.151C128.133 173.153 128.131 173.156 128.129 173.159C128.074 173.19 128.009 173.226 127.933 173.269C127.714 173.39 127.431 173.542 127.082 173.726C126.382 174.093 125.479 174.552 124.399 175.092C122.625 175.977 120.432 177.048 117.985 178.229C117.995 177.986 118 177.743 118 177.5Z" stroke="white" stroke-width="14"/>
</svg>
